<?xml version="1.0" encoding="utf-8"?>
<!-- Generator: Adobe Illustrator 23.0.1, SVG Export Plug-In . SVG Version: 6.00 Build 0)  -->
<svg version="1.1" id="Layer_1" xmlns="http://www.w3.org/2000/svg" xmlns:xlink="http://www.w3.org/1999/xlink" x="0px" y="0px"
	 viewBox="0 0 401.7 140" style="enable-background:new 0 0 401.7 140;" xml:space="preserve">
<style type="text/css">
	.st0{fill:#FFFFFF;}
	.st1{fill:#F85252;}
</style>
<g>
	<g>
		<g>
			<rect x="146.2" class="st0" width="17.8" height="101"/>
		</g>
		<g>
			<path class="st1" d="M189.2,0c-3,0-5.5,1.1-7.7,3.3c-2.2,2.2-3.3,4.8-3.3,7.7c0,3,1.1,5.5,3.3,7.7c2.2,2.2,4.7,3.3,7.7,3.3
				c3,0,5.6-1.1,7.8-3.3c2.2-2.2,3.3-4.7,3.3-7.7c0-3-1.1-5.5-3.3-7.7C194.9,1.1,192.3,0,189.2,0z"/>
		</g>
		<g>
			<rect x="180.4" y="31.8" class="st0" width="17.8" height="69.2"/>
		</g>
		<g>
			<polygon class="st0" points="243.2,80.2 226.5,31.8 206.8,31.8 233.1,101 253.4,101 279.7,31.8 260.1,31.8 			"/>
		</g>
		<g>
			<path class="st0" d="M318.4,29.9c-10.7,0-19.5,3.5-26.3,10.4c-6.8,7-10.2,15.7-10.2,26.1c0,10.5,3.5,19.2,10.4,26.1
				c6.9,6.9,16.1,10.4,27.5,10.4c13.3,0,23.3-4.9,30.2-14.8l-14.4-8.3c-3.5,4.6-8.7,6.9-15.5,6.9c-10.6,0-17.1-4.3-19.5-13h52.1
				c0.5-2.6,0.7-5,0.7-7.3c0-10.3-3.3-19-9.9-26C336.9,33.4,328.6,29.9,318.4,29.9z M300.3,59.9c1-4.4,3.1-7.9,6.2-10.3
				c3.1-2.4,7.1-3.7,11.9-3.7c4.1,0,7.7,1.2,10.9,3.5c3.2,2.3,5.3,5.8,6.3,10.5H300.3z"/>
		</g>
		<g>
			<path class="st0" d="M399.1,29.9c-23.8,0-36,11.4-36.6,34.4V101h18.1V64c0-10.3,5-15.6,14.9-15.6h6V29.9H399.1z"/>
		</g>
	</g>
	<g>
		<path class="st0" d="M152.1,134l-5.9-21h2.9l4.8,17.2L159,113h2.8l5.1,17.2l4.8-17.2h2.8l-5.9,21h-3.2l-5-16.8l-5,16.8H152.1z"/>
		<path class="st0" d="M177.4,127.7c0.3,1.3,0.9,2.4,1.8,3.1c1,0.7,2.2,1.1,3.6,1.1c2,0,3.4-0.7,4.3-2.2l2.2,1.3
			c-1.5,2.3-3.7,3.4-6.6,3.4c-2.4,0-4.3-0.7-5.8-2.2c-1.5-1.5-2.2-3.4-2.2-5.6c0-2.3,0.7-4.1,2.2-5.6c1.5-1.5,3.3-2.2,5.7-2.2
			c2.2,0,4,0.8,5.4,2.3c1.4,1.5,2.1,3.4,2.1,5.6c0,0.4,0,0.8-0.1,1.2H177.4z M182.6,121.1c-1.4,0-2.6,0.4-3.5,1.2
			c-0.9,0.8-1.5,1.8-1.7,3.2h10c-0.2-1.4-0.8-2.5-1.7-3.2C184.9,121.5,183.8,121.1,182.6,121.1z"/>
		<path class="st0" d="M201.3,118.6c2.1,0,3.9,0.8,5.4,2.3c1.5,1.5,2.2,3.4,2.2,5.6c0,2.2-0.7,4.1-2.2,5.6c-1.5,1.5-3.3,2.3-5.4,2.3
			c-2.5,0-4.4-1-5.7-3v2.6h-2.6v-21h2.6v8.6C197,119.6,198.8,118.6,201.3,118.6z M201,131.9c1.5,0,2.8-0.5,3.8-1.5
			c1-1,1.5-2.3,1.5-3.8c0-1.5-0.5-2.8-1.5-3.8c-1-1-2.3-1.5-3.8-1.5c-1.5,0-2.8,0.5-3.8,1.5c-1,1-1.5,2.3-1.5,3.8
			c0,1.5,0.5,2.8,1.5,3.8C198.2,131.4,199.5,131.9,201,131.9z"/>
		<path class="st0" d="M227.9,113c2.9,0,5.2,1,7.1,3c1.9,2,2.8,4.5,2.8,7.4c0,2.9-0.9,5.4-2.8,7.4c-1.9,2-4.3,3-7.1,3h-8.2v-21
			H227.9z M227.9,131.4c2.1,0,3.9-0.7,5.2-2.2c1.4-1.5,2-3.4,2-5.6s-0.7-4.1-2-5.6c-1.4-1.5-3.1-2.2-5.2-2.2h-5.4v15.7H227.9z"/>
		<path class="st0" d="M242.8,127.7c0.3,1.3,0.9,2.4,1.8,3.1c1,0.7,2.2,1.1,3.6,1.1c2,0,3.4-0.7,4.3-2.2l2.2,1.3
			c-1.5,2.3-3.7,3.4-6.6,3.4c-2.4,0-4.3-0.7-5.8-2.2c-1.5-1.5-2.2-3.4-2.2-5.6c0-2.3,0.7-4.1,2.2-5.6c1.5-1.5,3.3-2.2,5.7-2.2
			c2.2,0,4,0.8,5.4,2.3c1.4,1.5,2.1,3.4,2.1,5.6c0,0.4,0,0.8-0.1,1.2H242.8z M248,121.1c-1.4,0-2.6,0.4-3.5,1.2
			c-0.9,0.8-1.5,1.8-1.7,3.2h10c-0.2-1.4-0.8-2.5-1.7-3.2C250.2,121.5,249.2,121.1,248,121.1z"/>
		<path class="st0" d="M268.3,119h2.8l-6,15h-3.1l-6-15h2.8l4.7,12.2L268.3,119z"/>
		<path class="st0" d="M274.6,127.7c0.3,1.3,0.9,2.4,1.8,3.1c1,0.7,2.2,1.1,3.6,1.1c2,0,3.4-0.7,4.3-2.2l2.2,1.3
			c-1.5,2.3-3.7,3.4-6.6,3.4c-2.4,0-4.3-0.7-5.8-2.2c-1.5-1.5-2.2-3.4-2.2-5.6c0-2.3,0.7-4.1,2.2-5.6c1.5-1.5,3.3-2.2,5.7-2.2
			c2.2,0,4,0.8,5.4,2.3c1.4,1.5,2.1,3.4,2.1,5.6c0,0.4,0,0.8-0.1,1.2H274.6z M279.8,121.1c-1.4,0-2.6,0.4-3.5,1.2
			c-0.9,0.8-1.5,1.8-1.7,3.2h10c-0.2-1.4-0.8-2.5-1.7-3.2S281,121.1,279.8,121.1z"/>
		<path class="st0" d="M290.2,134v-21.9h2.6V134H290.2z"/>
		<path class="st0" d="M309.4,132.1c-1.5,1.5-3.4,2.3-5.6,2.3s-4.1-0.8-5.6-2.3c-1.5-1.5-2.3-3.4-2.3-5.6s0.8-4.1,2.3-5.6
			c1.5-1.5,3.4-2.3,5.6-2.3s4.1,0.8,5.6,2.3c1.5,1.5,2.3,3.4,2.3,5.6S311,130.6,309.4,132.1z M303.8,131.8c1.5,0,2.8-0.5,3.8-1.5
			c1-1,1.5-2.3,1.5-3.8c0-1.5-0.5-2.8-1.5-3.8c-1-1-2.3-1.5-3.8-1.5c-1.5,0-2.7,0.5-3.7,1.5c-1,1-1.5,2.3-1.5,3.8
			c0,1.5,0.5,2.8,1.5,3.8C301.1,131.3,302.3,131.8,303.8,131.8z"/>
		<path class="st0" d="M323.1,118.6c2.1,0,3.9,0.8,5.4,2.3c1.5,1.5,2.2,3.4,2.2,5.6c0,2.2-0.7,4.1-2.2,5.6c-1.5,1.5-3.3,2.3-5.4,2.3
			c-2.5,0-4.4-1-5.7-3v8.6h-2.6v-21h2.6v2.6C318.7,119.6,320.6,118.6,323.1,118.6z M322.7,131.9c1.5,0,2.8-0.5,3.8-1.5
			c1-1,1.5-2.3,1.5-3.8c0-1.5-0.5-2.8-1.5-3.8c-1-1-2.3-1.5-3.8-1.5c-1.5,0-2.8,0.5-3.8,1.5c-1,1-1.5,2.3-1.5,3.8
			c0,1.5,0.5,2.8,1.5,3.8C320,131.4,321.2,131.9,322.7,131.9z"/>
		<path class="st0" d="M349.9,118.6c1.7,0,3,0.5,4.1,1.6c1,1.1,1.6,2.6,1.6,4.4v9.3H353v-9.2c0-1.2-0.3-2.1-0.9-2.7
			c-0.6-0.6-1.4-1-2.4-1c-1.1,0-2,0.4-2.7,1.1s-1,1.9-1,3.4v8.3h-2.6v-9.2c0-1.2-0.3-2.1-0.9-2.7c-0.6-0.6-1.3-1-2.3-1
			c-1.1,0-2,0.4-2.7,1.1c-0.7,0.8-1.1,1.9-1.1,3.4v8.3h-2.6v-15h2.6v2c1-1.6,2.5-2.4,4.5-2.4c2,0,3.5,0.8,4.4,2.5
			C346.3,119.5,347.8,118.6,349.9,118.6z"/>
		<path class="st0" d="M361,127.7c0.3,1.3,0.9,2.4,1.8,3.1c1,0.7,2.2,1.1,3.6,1.1c2,0,3.4-0.7,4.3-2.2l2.2,1.3
			c-1.5,2.3-3.7,3.4-6.6,3.4c-2.4,0-4.3-0.7-5.8-2.2c-1.5-1.5-2.2-3.4-2.2-5.6c0-2.3,0.7-4.1,2.2-5.6c1.5-1.5,3.3-2.2,5.7-2.2
			c2.2,0,4,0.8,5.4,2.3c1.4,1.5,2.1,3.4,2.1,5.6c0,0.4,0,0.8-0.1,1.2H361z M366.2,121.1c-1.4,0-2.6,0.4-3.5,1.2
			c-0.9,0.8-1.5,1.8-1.7,3.2h10c-0.2-1.4-0.8-2.5-1.7-3.2C368.4,121.5,367.4,121.1,366.2,121.1z"/>
		<path class="st0" d="M384.1,118.6c1.8,0,3.2,0.6,4.2,1.7c1.1,1.1,1.6,2.6,1.6,4.5v9.2h-2.6v-9c0-1.2-0.3-2.2-1-2.8
			c-0.7-0.7-1.6-1-2.7-1c-1.3,0-2.3,0.4-3.1,1.2c-0.8,0.8-1.2,2.1-1.2,3.7v7.9h-2.6v-15h2.6v2.2
			C380.3,119.5,381.9,118.6,384.1,118.6z"/>
		<path class="st0" d="M401.7,121.5h-4v8.1c0,0.7,0.1,1.3,0.4,1.6c0.3,0.3,0.7,0.5,1.3,0.5c0.6,0,1.3,0,2.2,0v2.3
			c-2.3,0.3-3.9,0.1-5-0.6c-1.1-0.7-1.6-1.9-1.6-3.8v-8.1h-3V119h3v-3.4l2.6-0.8v4.2h4V121.5z"/>
	</g>
	<g>
		<path class="st0" d="M82.9,102.9H51L0,52.6L51,2.2h31.9L31.7,52.6L82.9,102.9z"/>
		<path class="st1" d="M102.2,52.6L51,2.2h31.9l51,50.3l-51,50.3H51L102.2,52.6z"/>
	</g>
	<g>
		<path class="st0" d="M134.5,126.6H91.4c-0.6,0-1.1-0.5-1.1-1.1c0-0.6,0.5-1.1,1.1-1.1h43.2c0.6,0,1.1,0.5,1.1,1.1
			C135.6,126.1,135.1,126.6,134.5,126.6z"/>
	</g>
</g>
</svg>
